<?xml version="1.0" encoding="UTF-8"?>
<svg xmlns="http://www.w3.org/2000/svg" width="32" height="32" viewBox="0 0 32 32">
  <title>eCommerce Favicon - Cart with Bolt</title>
  <desc>Minimal shopping cart with a lightning bolt, designed as a favicon for an e-commerce MERN project.</desc>
  <!-- Background -->
  <rect x="1" y="1" width="30" height="30" rx="7" fill="#0EA5E9"/>
  <!-- Cart body -->
  <path d="M9 10h1.6a1 1 0 0 1 .98.79l.18.81h12.17a1 1 0 0 1 .98 1.2l-1 5a2 2 0 0 1-1.96 1.6H13a2 2 0 0 1-1.96-1.6L9.4 11.8H9a1 1 0 1 1 0-2z" fill="#FFFFFF"/>
  <!-- Bolt inside the cart -->
  <path d="M18.2 12.8l-2.6 3.1h2l-.8 3.1 2.9-3.7h-2.1l.6-2.5z" fill="#FDE047"/>
  <!-- Wheels -->
  <circle cx="13" cy="22.5" r="1.6" fill="#FFFFFF"/>
  <circle cx="21" cy="22.5" r="1.6" fill="#FFFFFF"/>
</svg>
